<?xml version="1.0" encoding="utf-8"?>
<!-- Generator: Adobe Illustrator 18.1.0, SVG Export Plug-In . SVG Version: 6.00 Build 0)  -->
<svg version="1.1" id="Layer_1" xmlns="http://www.w3.org/2000/svg" xmlns:xlink="http://www.w3.org/1999/xlink" x="0px" y="0px"
	 viewBox="0 0 393.8 343.5" style="enable-background:new 0 0 393.8 343.5;" xml:space="preserve">
<style type="text/css">
	.st0{fill-rule:evenodd;clip-rule:evenodd;}
</style>
<g id="taNHNG_1_">
	<path class="st0" d="M345.5,81.7c-21.4,0-43.4,0.2-65.3-0.1c-10.6-0.1-21.2-1.5-31.8-1.9c-14.3-0.5-28.6-0.5-42.8-0.7
		c-21.8-0.4-43.5-0.6-65.2-1.3c-20.4-0.6-40.8-2-61.2-2.6c-5.5-0.2-11.2,1-16.7,2.2c-1.5,0.3-3.5,3-3.6,4.7
		c-0.4,5.7-0.1,11.5,0.1,17.3c0.2,5,0.8,9.9,0.8,14.9c0,5.8,1.8,8.4,7.7,8.8c10.4,0.6,20.9,0.9,31.4,1c18.4,0.2,36.8,0.1,55.2,0.1
		c0.8,0,1.7-0.1,2.4-0.4c9.1-2.8,16.4,1.1,23.5,6.3c3.6,2.7,3.8,6.1,3.4,10.2c-0.5,6.5-0.6,13.2-0.5,19.7
		c0.1,13.6,0.4,27.2,0.6,40.8c0.1,4.6,0.2,9.3,0.1,13.9c0,4.8-0.3,9.6-0.4,14.4c-0.1,10.6-0.1,21.2-0.2,31.8
		c-0.1,13.3-0.2,26.6-0.2,39.9c0,7.9,0.5,15.9,0.2,23.8c-0.3,7.1-5.5,12.6-12.5,13.3c-14.1,1.4-28.1,3.1-42.2,3.6
		c-12.2,0.4-24.5-1.2-36.8-1.3c-10,0-20,0.9-29.9,1.4c-5,0.3-10,0.4-14.9,1.1c-8.8,1.3-17.1-0.9-25.2-3.7c-1.5-0.5-3.1-3-3.4-4.9
		c-2.6-14.7-3.1-29.3,2.7-43.5c1.9-4.7,2.6-9.9,4.5-14.6c3.1-7.2,9.9-9.8,16.8-11.9c0.9-0.3,2.1-0.4,2.9,0
		c8.9,4.3,17.8,1.6,26.9,0.7c10.2-1,20.5-1.8,30.8-1.8c5,0,10.1,1.9,15,3.1c5.4,1.3,9-1,8.9-6.6c-0.1-6.6-1.2-13.2-1.2-19.8
		c-0.1-7.2,0.5-14.5,0.7-21.7c0.3-10.1,0.6-20.1,0.6-30.2c0-2.9-0.4-6.4-2.1-8.6c-1.8-2.3-5.1-4.5-7.9-4.7c-14.7-1-29.5-1.6-44.3-2
		c-19-0.6-37.9-5-57.1-2.3c-7.2,1-11.6-4.6-11.2-11.8c0.3-5,0.3-10.5-1.5-15.1c-2.4-6.4-3-12.2-1.6-18.8c1-4.9,0.2-10.1,0.2-15.2
		C1.3,96,1.4,82.9,1.4,69.8c0-1.8-0.5-3.6-0.6-5.4c-0.2-3.3-1.5-7.3-0.1-9.7C4.3,48.5,1.2,42.9,0.9,37C0.4,27.4-0.3,17.8,0.1,8.2
		c0.2-6,3.2-7.7,9.4-7.7c8.6,0,17.2,0.3,25.8-0.2c19-1.2,37.7,1.1,56.5,3.4c18,2.2,36,1.9,54.1,1.4c13.4-0.3,26.8,1.1,40.2,1.5
		c7.1,0.2,14.3-0.2,21.4,0c11.3,0.4,22.5,1.4,33.8,1.7c11.1,0.2,22.2-0.4,33.3-0.3c14.1,0.2,28.2,0.9,42.3,1.4
		c3.8,0.1,7.6,0.1,11.5,0C341.2,9.2,354,9,366.8,8.2c3.1-0.2,6.3-1.9,9.1-3.6c7.4-4.3,16.8-0.4,16.8,8.2
		c0.1,13.2,3.1,26.5-0.8,39.7c-0.6,2.2-0.3,4.6-0.3,6.9c0.3,11.7-6.5,19.1-18.1,19.8c-4.7,0.3-9.3,0.5-14,0.9
		C355,80.6,350.5,81.1,345.5,81.7z"/>
	<path class="st0" d="M365.2,187.4c-9.2-1.1-18.4-2.6-27.6-3.3c-10.1-0.7-20.3-1.1-30.4-0.9c-3.6,0.1-5.6,3.4-5.6,7.5
		c0.4,18.1,0.5,36.2,0.8,54.3c0.1,4.1,0.2,8.3,0,12.4c-0.2,5.2,2.9,9.2,8.3,9.6c13.6,0.9,27.1,1.1,40.8-0.8
		c10.6-1.5,21.5-0.2,32.3,0.2c4.2,0.2,5.9,3.4,5.5,7.5c-1.2,13.8-2.4,27.5,0.2,41.3c1.1,5.9,0.7,12.2,0.8,18.3
		c0.1,5.3-2,7.1-7.1,8.6c-7.5,2.1-14.7,1.3-22.3,0.5c-12.1-1.3-24.2-2.5-36.6-1.5c-12.1,1-24.4-0.6-36.7-0.5
		c-8.9,0.1-17.9,0.7-26.8,1.6c-6.5,0.7-12.2-0.2-16.8-5.2c-1.3-1.4-3-3.1-4.8-3.5c-6.2-1.4-7.7-5.9-7.9-11.1
		c-0.3-13.1-0.4-26.2-0.4-39.3c0-14.1,0.3-28.1,0-42.2c-0.4-14.9-1.2-29.7-2.1-44.6c-0.5-8.7-2.3-17.5-2.1-26.1
		c0.5-13.7,1.8-27.4,3.5-41.1c1-7.4,12.6-13.8,20.7-12.6c12.4,1.9,24.9,3.6,37.4,5.5c13.6,2,27.1-0.3,40.6-1.7
		c15.3-1.7,30.7-3.9,46.1-1.9c4.5,0.6,9.2,2,13.2,4.1c5.9,3.1,6.1,9.4,6.4,15.1c0.3,6.3-0.7,12.7,0.1,18.9
		c1.3,9.5-4.2,16.6-7.7,24.3c-1,2.2-4.7,4-7.4,4.6c-4.7,1-9.6,0.8-14.4,1.1C365.2,186.9,365.2,187.2,365.2,187.4z"/>
</g>
</svg>
