<?xml version="1.0" encoding="utf-8"?>
<!-- Generator: Adobe Illustrator 18.1.1, SVG Export Plug-In . SVG Version: 6.00 Build 0)  -->
<svg version="1.1" id="Layer_1" xmlns="http://www.w3.org/2000/svg" xmlns:xlink="http://www.w3.org/1999/xlink" x="0px" y="0px"
	 viewBox="0 129 612 533.8" enable-background="new 0 129 612 533.8" xml:space="preserve">
<g id="taNHNG_1_">
	<path d="M536.9,256.1c-33.3,0-67.4,0.3-101.5-0.2c-16.5-0.2-32.9-2.3-49.4-3c-22.2-0.8-44.4-0.8-66.5-1.1
		c-33.9-0.6-67.6-0.9-101.3-2c-31.7-0.9-63.4-3.1-95.1-4c-8.5-0.3-17.4,1.6-26,3.4c-2.3,0.5-5.4,4.7-5.6,7.3
		c-0.6,8.9-0.2,17.9,0.2,26.9c0.3,7.8,1.2,15.4,1.2,23.2c0,9,2.8,13.1,12,13.7c16.2,0.9,32.5,1.4,48.8,1.6
		c28.6,0.3,57.2,0.2,85.8,0.2c1.2,0,2.6-0.2,3.7-0.6c14.1-4.4,25.5,1.7,36.5,9.8c5.6,4.2,5.9,9.5,5.3,15.9
		c-0.8,10.1-0.9,20.5-0.8,30.6c0.2,21.1,0.6,42.3,0.9,63.4c0.2,7.1,0.3,14.5,0.2,21.6c0,7.5-0.5,14.9-0.6,22.4
		c-0.2,16.5-0.2,32.9-0.3,49.4c-0.2,20.7-0.3,41.3-0.3,62c0,12.3,0.8,24.7,0.3,37c-0.5,11-8.5,19.6-19.4,20.7
		c-21.9,2.2-43.7,4.8-65.6,5.6c-19,0.6-38.1-1.9-57.2-2c-15.5,0-31.1,1.4-46.5,2.2c-7.8,0.5-15.5,0.6-23.2,1.7
		c-13.7,2-26.6-1.4-39.2-5.8c-2.3-0.8-4.8-4.7-5.3-7.6c-4-22.8-4.8-45.5,4.2-67.6c3-7.3,4-15.4,7-22.7c4.8-11.2,15.4-15.2,26.1-18.5
		c1.4-0.5,3.3-0.6,4.5,0c13.8,6.7,27.7,2.5,41.8,1.1c15.9-1.6,31.9-2.8,47.9-2.8c7.8,0,15.7,3,23.3,4.8c8.4,2,14-1.6,13.8-10.3
		c-0.2-10.3-1.9-20.5-1.9-30.8c-0.2-11.2,0.8-22.5,1.1-33.7c0.5-15.7,0.9-31.2,0.9-46.9c0-4.5-0.6-9.9-3.3-13.4
		c-2.8-3.6-7.9-7-12.3-7.3c-22.8-1.6-45.8-2.5-68.8-3.1c-29.5-0.9-58.9-7.8-88.7-3.6c-11.2,1.6-18-7.1-17.4-18.3
		c0.5-7.8,0.5-16.3-2.3-23.5c-3.7-9.9-4.7-19-2.5-29.2c1.6-7.6,0.3-15.7,0.3-23.6c0.2-20.5,0.3-40.9,0.3-61.2c0-2.8-0.8-5.6-0.9-8.4
		c-0.3-5.1-2.3-11.3-0.2-15.1c5.6-9.6,0.8-18.3,0.3-27.5c-0.8-14.9-1.9-29.8-1.2-44.8c0.3-9.3,5-12,14.6-12
		c13.4,0,26.7,0.5,40.1-0.3c29.5-1.9,58.6,1.7,87.8,5.3c28,3.4,55.9,3,84.1,2.2c20.8-0.5,41.6,1.7,62.5,2.3c11,0.3,22.2-0.3,33.3,0
		c17.6,0.6,35,2.2,52.5,2.6c17.3,0.3,34.5-0.6,51.8-0.5c21.9,0.3,43.8,1.4,65.7,2.2c5.9,0.2,11.8,0.2,17.9,0
		c19.9-0.3,39.8-0.6,59.7-1.9c4.8-0.3,9.8-3,14.1-5.6c11.5-6.7,26.1-0.6,26.1,12.7c0.2,20.5,4.8,41.2-1.2,61.7
		c-0.9,3.4-0.5,7.1-0.5,10.7c0.5,18.2-10.1,29.7-28.1,30.8c-7.3,0.5-14.5,0.8-21.8,1.4C551.7,254.3,544.7,255.1,536.9,256.1z"/>
	<path d="M567.6,420.3c-14.3-1.7-28.6-4-42.9-5.1c-15.7-1.1-31.5-1.7-47.2-1.4c-5.6,0.2-8.7,5.3-8.7,11.7
		c0.6,28.1,0.8,56.3,1.2,84.4c0.2,6.4,0.3,12.9,0,19.3c-0.3,8.1,4.5,14.3,12.9,14.9c21.1,1.4,42.1,1.7,63.4-1.2
		c16.5-2.3,33.4-0.3,50.2,0.3c6.5,0.3,9.2,5.3,8.5,11.7c-1.9,21.4-3.7,42.7,0.3,64.2c1.7,9.2,1.1,19,1.2,28.4
		c0.2,8.2-3.1,11-11,13.4c-11.7,3.3-22.8,2-34.7,0.8c-18.8-2-37.6-3.9-56.9-2.3c-18.8,1.6-37.9-0.9-57-0.8
		c-13.8,0.2-27.8,1.1-41.6,2.5c-10.1,1.1-19-0.3-26.1-8.1c-2-2.2-4.7-4.8-7.5-5.4c-9.6-2.2-12-9.2-12.3-17.3
		c-0.5-20.4-0.6-40.7-0.6-61.1c0-21.9,0.5-43.7,0-65.6c-0.6-23.2-1.9-46.2-3.3-69.3c-0.8-13.5-3.6-27.2-3.3-40.6
		c0.8-21.3,2.8-42.6,5.4-63.9c1.6-11.5,19.6-21.4,32.2-19.6c19.3,3,38.7,5.6,58.1,8.5c21.1,3.1,42.1-0.5,63.1-2.6
		c23.8-2.6,47.7-6.1,71.6-3c7,0.9,14.3,3.1,20.5,6.4c9.2,4.8,9.5,14.6,9.9,23.5c0.5,9.8-1.1,19.7,0.2,29.4c2,14.8-6.5,25.8-12,37.8
		c-1.6,3.4-7.3,6.2-11.5,7.1c-7.3,1.6-14.9,1.2-22.4,1.7C567.6,419.5,567.6,420,567.6,420.3z"/>
</g>
</svg>
