<?xml version="1.0" encoding="utf-8"?>

<!-- Generator: Adobe Illustrator 18.1.0, SVG Export Plug-In . SVG Version: 6.00 Build 0)  -->

<svg version="1.1" id="Layer_1" xmlns="http://www.w3.org/2000/svg" xmlns:xlink="http://www.w3.org/1999/xlink" x="0px" y="0px"

	 viewBox="0 0 234.2 234.5" style="enable-background:new 0 0 234.2 234.5;" xml:space="preserve">

<g id="mask">


    <path class="st0" d="M233.8,129.5c0.8,25.1-0.2,62.8,0.3,100.4c0,3.5-0.8,4.4-4.3,4.4c-40.7,0.5-81.3-0.9-121.9-1.6

        c-33.3-0.6-66.6-1.9-99.9-1.6c-4.2,0-5.1-1-5.1-5.2c0.7-40-1.4-79.9-2.5-119.9C-0.4,72.8,0.2,39.5,0,6.2c0-3.9,2.1-3.3,4.4-3.3

        c24.5,0.2,49,0.4,73.5-0.7c49.4-2.3,98.9-2,148.4-2.2c4.1,0,5.2,0.9,5.1,5.1C230.5,42.4,231.9,79.7,233.8,129.5z"/>


</g>

</svg>

