<?xml version="1.0" encoding="utf-8"?>
<svg version="1.1" id="Layer_1" xmlns="http://www.w3.org/2000/svg" xmlns:xlink="http://www.w3.org/1999/xlink" x="0px" y="0px"
	 viewBox="0 0 241.1 241.2" style="enable-background:new 0 0 241.1 241.2;" xml:space="preserve">

<path class="st0" d="M241.1,120.6c0-39,0-78,0.1-117c0-3-0.6-3.6-3.6-3.6c-78,0.1-156,0.1-234,0C0.6,0,0,0.6,0,3.6
	c0.1,78,0.1,156,0,234c0,3,0.6,3.6,3.6,3.6c78-0.1,156-0.1,234,0c3,0,3.6-0.6,3.6-3.6C241,198.6,241.1,159.6,241.1,120.6z

	 M232.8,238.4c-40.7,0.5-81.3-0.9-121.9-1.6c-33.3-0.6-66.6-1.9-99.9-1.6c-4.2,0-5.1-1-5.1-5.2c0.7-40-1.4-79.9-2.5-119.9

	C2.6,76.8,3.2,43.5,3,10.2C3,6.3,5,6.9,7.4,6.9l73.5-0.7c49.4-2.3,98.9-2,148.4-2.2c4.1,0,5.2,0.9,5.1,5.1

	c-0.9,37.3,0.5,74.6,2.5,124.4c0.8,25.1-0.2,62.8,0.3,100.4C237.2,237.4,236.4,238.3,232.8,238.4z"/>
</svg>

